{"title":"In.the.Heart.of.the.Sea.2015.BRRip.480p.x264.AAC-VYTO [P2PDL]","uid":13668851,"size":480580344,"categoryP":"video","categoryS":"movies","magnet":"?xt=urn:btih:c10f9992fc1398eab60bba607db820702facf88c&amp;dn=In.the.Heart.of.the.Sea.2015.BRRip.480p.x264.AAC-VYTO+%5BP2PDL%5D&amp;tr=udp%3A%2F%2Ftracker.leechers-paradise.org%3A6969&amp;tr=udp%3A%2F%2Fzer0day.ch%3A1337&amp;tr=udp%3A%2F%2Fopen.demonii.com%3A1337&amp;tr=udp%3A%2F%2Ftracker.coppersurfer.tk%3A6969&amp;tr=udp%3A%2F%2Fexodus.desync.com%3A6969","seeders":2,"leechers":2,"uploader":"VYTOP2PDL","files":7,"time":1456293708,"description":"____    ____ ____    ____ .___________.  ______   \r\n     /   /      /   / |           | /  __    \r\n    /   /      /   /  `---|  |----`|  |  |  | \r\n        /     _    _/       |  |     |  |  |  | \r\n       /        |  |         |  |     |  `--'  | \r\n    __/         |__|         |__|      ______/  \r\n                                                  \r\nPresenting Small Encodes with quality for years!\r\n                                                                                                   \r\n                                                                                                   \r\n\r\n\r\nIn.the.Heart.of.the.Sea.2015.BRRip.480p.x264.AAC-VYTO\r\n\r\n\r\nGenre: Action, Adventure, Biography \nhttp://www.imdb.com/title/tt1390411/\r\n\r\n\r\nFormat                                   : MPEG-4\r\nFile size                                : 452 MiB\r\nDuration                                 : 2h 1mn\r\nOverall bit rate                         : 519 Kbps\r\n\r\nVideo\r\nFormat                                   : AVC\r\nBit rate                                 : 484 Kbps\r\nWidth                                    : 720 pixels\r\nHeight                                   : 400 pixels\r\nDisplay aspect ratio                     : 16:9\r\nFrame rate mode                          : Constant\r\nFrame rate                               : 23.976 fps\r\nBit depth                                : 8 bits\r\nStream size                              : 421 MiB (93%)\r\nWriting library                          : x264\r\n\r\nAudio\r\nFormat                                   : AAC\r\nBit rate mode                            : Variable\r\nBit rate                                 : 32.0 Kbps\r\nChannel(s)                               : 2 channels\r\nChannel positions                        : Front: L R\r\nSampling rate                            : 48.0 KHz\r\nStream size                              : 27.8 MiB (6%)\r\nLanguage                                 : English\r\n\r\nSubtitle                                 : Yes (English)\r\n\r\n\r\nScreen Shot: (Click to view)\r\n \nhttp://ititli.com/XWK \nhttp://ititli.com/XWV \nhttp://ititli.com/XWt \nhttp://ititli.com/XWL \nhttp://ititli.com/XWd \nhttp://ititli.com/XW0 \nhttp://ititli.com/XWA \nhttp://ititli.com/XWl \nhttp://ititli.com/XWm\r\n\r\n----------------------------------------------------------------------------------------------------\r\n\r\n\r\nEncoder Notes: Looking For Early Access To Anything You Can Provide WEBDL, DVDScr, DVDR, BluRay,\r\nDirect Audio, Music Releases and Seedboxes. If You Got anything to offer please contact us.\r\n\r\nSupport us by donating BC - 1FgwdzPsd1y25Gea8wP1qni35uGCtmkRCD\r\n\r\nSend some love!\r\nFind us and join us!","torrent":{"xt":"urn:btih:c10f9992fc1398eab60bba607db820702facf88c","amp;dn":"In.the.Heart.of.the.Sea.2015.BRRip.480p.x264.AAC-VYTO+%5BP2PDL%5D","amp;tr":["udp%3A%2F%2Ftracker.leechers-paradise.org%3A6969","udp%3A%2F%2Fzer0day.ch%3A1337","udp%3A%2F%2Fopen.demonii.com%3A1337","udp%3A%2F%2Ftracker.coppersurfer.tk%3A6969","udp%3A%2F%2Fexodus.desync.com%3A6969"],"infoHash":"c10f9992fc1398eab60bba607db820702facf88c","infoHashBuffer":{"type":"Buffer","data":[193,15,153,146,252,19,152,234,182,11,186,96,125,184,32,112,47,172,248,140]},"announce":[],"urlList":[]}}